<svg id="Layer_1" xmlns="http://www.w3.org/2000/svg" y="0px" xml:space="preserve" height="340px" width="340px" version="1.1" x="0px" viewBox="0 0 340 340" enable-background="new 0 0 340 340">
  <g opacity=".1">
    <path d="m271.74 139.82c-0.228-1.379-1.065-2.729-2.319-4.021-10.111 10.349-50.801 12.062-99.445 12.062-48.645 0-89.297-1.714-99.446-12.062-1.255 1.292-2.034 2.642-2.319 4.021h-0.095l0.029 0.747c0 0.086-0.029 0.173-0.029 0.259 0 0.201 0.057 0.383 0.085 0.574l7.916 163.43h0.019c0.703 12.818 15.271 32.185 93.84 32.185 78.577 0 93.155-19.367 93.838-32.185h0.057l7.925-163.43c0.018-0.191 0.076-0.373 0.076-0.574 0-0.086-0.058-0.172-0.058-0.259l0.058-0.747h-0.14zm-55.37-85.531v-38.589c0-6.979-5.664-12.723-12.62-12.723h-72.05c-6.908 0-12.6 5.744-12.6 12.723v39.03c-37.478 4.279-64.872 12.953-64.872 22.995v19.079c0 3.916 3.934 7.639 10.985 11 18.492 8.75 58.46 14.819 104.77 14.819 46.345 0 86.294-6.069 104.8-14.819 7.013-3.361 10.985-7.084 10.985-11v-19.076c0.01-10.396-29.65-19.347-69.39-23.435zm-18.58-1.656c-8.781-0.459-18.356-0.747-27.811-0.747-9.798 0-19.319 0.287-28.385 0.804l-3.917 0.201v-15.987c0-6.989 1.693-15.321 2.834-15.321h54.737c1.158 0 2.543 8.332 2.543 15.321v15.729z" fill="#333"/>
  </g>
</svg>
